<?xml version="1.0" encoding="UTF-8"?>
<svg xmlns="http://www.w3.org/2000/svg" xmlns:xlink="http://www.w3.org/1999/xlink" width="29px" height="24px" viewBox="0 0 29 24" version="1.1">
<g id="surface1">
<path style=" stroke:none;fill-rule:nonzero;fill:rgb(0%,0%,0%);fill-opacity:1;" d="M 25.953125 6.035156 C 25.972656 6.289062 25.972656 6.542969 25.972656 6.800781 C 25.972656 14.652344 20.03125 23.707031 9.167969 23.707031 L 9.167969 23.703125 C 5.960938 23.707031 2.816406 22.78125 0.117188 21.039062 C 0.582031 21.09375 1.050781 21.125 1.523438 21.125 C 4.179688 21.128906 6.765625 20.230469 8.855469 18.578125 C 6.328125 18.527344 4.113281 16.871094 3.339844 14.449219 C 4.226562 14.621094 5.136719 14.585938 6.003906 14.347656 C 3.25 13.789062 1.269531 11.351562 1.269531 8.523438 C 1.269531 8.5 1.269531 8.472656 1.269531 8.449219 C 2.089844 8.910156 3.007812 9.164062 3.949219 9.191406 C 1.355469 7.449219 0.554688 3.976562 2.121094 1.261719 C 5.121094 4.972656 9.542969 7.226562 14.292969 7.46875 C 13.816406 5.402344 14.464844 3.242188 16 1.789062 C 18.378906 -0.457031 22.121094 -0.34375 24.355469 2.046875 C 25.679688 1.785156 26.945312 1.296875 28.105469 0.605469 C 27.664062 1.980469 26.742188 3.148438 25.507812 3.890625 C 26.679688 3.753906 27.824219 3.4375 28.902344 2.957031 C 28.109375 4.152344 27.109375 5.191406 25.953125 6.035156 Z M 25.953125 6.035156 "/>
</g>
</svg>
