<?xml version="1.0" encoding="UTF-8"?>
<svg xmlns="http://www.w3.org/2000/svg" xmlns:xlink="http://www.w3.org/1999/xlink" width="24px" height="24px" viewBox="0 0 24 24" version="1.1">
<g id="surface1">
<path style=" stroke:none;fill-rule:nonzero;fill:rgb(0%,0%,0%);fill-opacity:1;" d="M 21.480469 6.035156 C 21.492188 6.289062 21.492188 6.542969 21.492188 6.800781 C 21.492188 14.652344 16.578125 23.707031 7.589844 23.707031 L 7.589844 23.703125 C 4.933594 23.707031 2.332031 22.78125 0.0976562 21.039062 C 0.484375 21.09375 0.871094 21.125 1.261719 21.125 C 3.460938 21.128906 5.597656 20.230469 7.328125 18.578125 C 5.238281 18.527344 3.40625 16.871094 2.765625 14.449219 C 3.496094 14.621094 4.25 14.585938 4.96875 14.347656 C 2.691406 13.789062 1.050781 11.351562 1.050781 8.523438 C 1.050781 8.5 1.050781 8.472656 1.050781 8.449219 C 1.730469 8.910156 2.488281 9.164062 3.269531 9.191406 C 1.121094 7.449219 0.457031 3.976562 1.753906 1.261719 C 4.238281 4.972656 7.898438 7.226562 11.828125 7.46875 C 11.433594 5.402344 11.972656 3.242188 13.242188 1.789062 C 15.210938 -0.457031 18.304688 -0.34375 20.15625 2.046875 C 21.25 1.785156 22.300781 1.296875 23.257812 0.605469 C 22.894531 1.980469 22.132812 3.148438 21.109375 3.890625 C 22.078125 3.753906 23.027344 3.4375 23.917969 2.957031 C 23.261719 4.152344 22.433594 5.191406 21.480469 6.035156 Z M 21.480469 6.035156 "/>
</g>
</svg>
